<svg xmlns="http://www.w3.org/2000/svg" xmlns:xlink="http://www.w3.org/1999/xlink" width="32" height="21"><defs><path id="a" d="M1031 2581h-8l-.023-2.132h7.957v1.883zm-13.32 7.472c.514.759.77 1.678.77 2.759 0 1.116-.289 2.118-.877 3.003a5.314 5.314 0 0 1-1.398 1.48c-.629.46-3.595 1.785-3.595 1.785l-1.58.5h-9v-21h9c2.405.039 4.91 1.79 5.917 3.093.604.8.903 1.76.903 2.875 0 1.151-.303 2.072-.913 2.772-.34.392-.84.749-1.504 1.07 1.005.351 1.768.903 2.277 1.663zM1006 2586l5.404-.265c.86 0 1.145-.382 1.68-.693.534-.31.801-.862.801-1.655 0-.875-.353-1.457-1.061-1.737-.609-.193-1.65-.621-2.596-.621L1006 2581zm8.288 4.961c0-.977-.42-1.653-1.257-2.016-.468-.207-.78-.85-1.627-.857L1006 2588v6l5.404-.03c.858 0 1.107-.435 1.586-.658.864-.41 1.298-1.191 1.298-2.35zm19.597-3.062c.096.615.14 1.51.122 2.677h-10.304c.057 1.355.548 2.303 1.479 2.846.562.34 1.242.506 2.04.506.84 0 1.526-.203 2.053-.619.287-.22.54-.532.76-.925h3.777c-.099.8-.554 1.612-1.37 2.437-1.267 1.312-3.043 1.968-5.323 1.968-1.884 0-3.545-.554-4.986-1.659-1.436-1.109-2.158-2.908-2.158-5.401 0-2.34.648-4.13 1.948-5.377 1.304-1.248 2.988-1.869 5.063-1.869 1.23 0 2.338.208 3.328.63a5.668 5.668 0 0 1 2.442 1.996c.581.803.955 1.732 1.129 2.79zm-4.706-1.78c-.587-.486-1.32-.73-2.193-.73-.952 0-1.686.261-2.208.773-.525.512-.852 1.208-.987 2.088h6.377c-.07-.937-.398-1.646-.99-2.131z"/></defs><use fill="#424345" xlink:href="#a" transform="translate(-1002 -2577)"/></svg>