<svg xmlns="http://www.w3.org/2000/svg" xmlns:xlink="http://www.w3.org/1999/xlink" width="22" height="22"><defs><path id="a" d="M914.999 2588c-.001 6.074-4.925 10.999-11 10.999-6.074 0-10.998-4.925-10.998-11 0-6.073 4.924-10.997 10.998-10.998 6.075 0 10.999 4.925 11 10.999zm-9.007-1.914c.193.427.385.872.574 1.337a14.164 14.164 0 0 1 2.486-.219h.008c1.094 0 2.267.129 3.508.393a8.518 8.518 0 0 0-1.83-4.893c-1.347 1.538-3.012 2.621-4.746 3.382zm-3.816-6.462c.744.953 1.834 2.512 2.96 4.692 1.605-.69 3.09-1.664 4.214-3.011a8.526 8.526 0 0 0-5.35-1.886c-.626 0-1.235.074-1.824.205zm-6.502 6.298c.191.006.42.01.686.01h.134c1.578.001 4.187-.18 6.777-.952-1.274-2.415-2.466-3.963-3.062-4.666a8.607 8.607 0 0 0-4.535 5.608zm1.773 7.599a14.656 14.656 0 0 1 2.367-2.762 13.585 13.585 0 0 1 4.83-2.849 33.976 33.976 0 0 0-.493-1.136c-3.052.964-6.064 1.108-7.79 1.12h-.001c-.378 0-.693-.008-.938-.018a2.099 2.099 0 0 0-.004.124 8.53 8.53 0 0 0 2.029 5.52zm9.599 2.499a42.305 42.305 0 0 0-1.695-6.28c-1.921.626-3.393 1.678-4.459 2.699a12.386 12.386 0 0 0-1.99 2.451 8.521 8.521 0 0 0 5.097 1.691c1.074 0 2.098-.2 3.047-.561zm5.379-6.45c-1.22-.276-2.344-.403-3.368-.403h-.025c-.617 0-1.202.045-1.76.125a44.097 44.097 0 0 1 1.584 5.766 8.577 8.577 0 0 0 3.569-5.487z"/></defs><use fill="#fbcd6c" xlink:href="#a" transform="translate(-893 -2577)"/></svg>