<svg xmlns="http://www.w3.org/2000/svg" xmlns:xlink="http://www.w3.org/1999/xlink" width="22" height="22"><defs><path id="a" d="M972 2579.75v16.5c0 .773-.464 1.332-1.017 1.886-.553.554-.96.864-1.733.864h-16.5c-.773 0-1.53-.31-2.083-.864-.554-.554-.667-1.113-.667-1.886v-16.5c0-.774.113-1.402.667-1.956.553-.553 1.31-.795 2.083-.795h16.5c.773 0 1.18.241 1.733.795.553.554 1.017 1.182 1.017 1.955zm-15.568 8.172c0 1.185.432 2.194 1.295 3.03.864.835 1.9 1.253 3.112 1.253 1.221 0 2.263-.418 3.126-1.253.863-.836 1.295-1.845 1.295-3.03 0-1.184-.432-2.194-1.295-3.03-.863-.835-1.905-1.253-3.126-1.253-1.211 0-2.249.418-3.112 1.253-.863.836-1.295 1.846-1.295 3.03zm13.735 7.412v-9.168h-2.75c.19.602.261 1.336.261 1.986a6.352 6.352 0 0 1-.916 3.33 6.692 6.692 0 0 1-2.489 2.414 6.872 6.872 0 0 1-3.434.889c-1.879 0-3.486-.648-4.822-1.942-1.335-1.294-2.002-2.857-2.002-4.691 0-.65.377-1.384.568-1.986h-2.75v9.168c0-.185.17 1.775 1.833 1.833h14.667c1.718.057 1.834-1.833 1.834-1.833zm-.367-15.035c-.025-.946-1.1-1.1-1.1-1.1h-2.75c-.276 0-.614.313-.804.508a.962.962 0 0 0-.286.694v2.364c0 .277.095.512.286.702.19.19.528.133.804.133h2.75c.414-.096.564-.09.601-.057.198-.238.5-.79.5-1.044zm-.55 3.3c-.117.119.112-.004.052-.056a.834.834 0 0 1-.052.057z"/></defs><use fill="#424345" xlink:href="#a" transform="translate(-950 -2577)"/></svg>