<svg xmlns="http://www.w3.org/2000/svg" xmlns:xlink="http://www.w3.org/1999/xlink" width="19" height="22"><defs><path id="a" d="M845.95 2589.722c1.08-1.88-.348-2.292-.572-3.653-.916-5.566 6.53-9.368 10.43-5.478 2.698 2.693.921 10.975-3.429 10.114-4.167-.822 2.04-7.414-1.285-8.708-2.703-1.053-4.138 3.216-2.856 5.337-.753 3.65-2.37 7.085-1.715 11.659 2.124-1.515 2.841-4.418 3.428-7.446 1.068.64 1.64 1.302 3.001 1.405 5.022.383 7.828-4.93 7.14-9.832-.608-4.346-5.015-6.559-9.714-6.04-3.716.41-7.42 3.362-7.573 7.586-.094 2.578.65 4.513 3.144 5.056z"/></defs><use fill="#424345" xlink:href="#a" transform="translate(-842 -2577)"/></svg>